<svg width="28" height="28" viewBox="0 0 28 28" fill="none" xmlns="http://www.w3.org/2000/svg">
<rect x="0.5" y="0.5" width="27" height="27" stroke="black"/>
<path d="M24.68 21.208C24.68 22.584 24.36 23.56 23.72 24.136C23.096 24.712 22.056 25 20.6 25H16.04V8.2H20.312C21.736 8.2 22.776 8.488 23.432 9.064C24.104 9.64 24.44 10.6 24.44 11.944V13.312C24.44 14.544 24 15.472 23.12 16.096C24.16 16.672 24.68 17.656 24.68 19.048V21.208ZM22.352 11.728C22.352 11.12 22.208 10.68 21.92 10.408C21.648 10.136 21.208 10 20.6 10H18.128V15.304H20.6C21.096 15.304 21.512 15.144 21.848 14.824C22.184 14.504 22.352 14.08 22.352 13.552V11.728ZM22.592 18.832C22.592 18.304 22.432 17.888 22.112 17.584C21.792 17.264 21.368 17.104 20.84 17.104H18.128V23.2H20.816C21.424 23.2 21.872 23.064 22.16 22.792C22.448 22.504 22.592 22.056 22.592 21.448V18.832Z" fill="black"/>
</svg>
