<svg width="73" height="73" viewBox="0 0 73 73" fill="none" xmlns="http://www.w3.org/2000/svg">
<rect x="2" y="2" width="69" height="69" stroke="#0085FF" stroke-width="4"/>
<path d="M41.911 63C40.945 63 40.462 62.517 40.462 61.551V34.296C40.462 33.33 40.945 32.847 41.911 32.847H53.917C56.2323 32.847 57.9957 33.445 59.207 34.641C60.4183 35.8217 61.024 37.5467 61.024 39.816V41.058C61.024 43.358 60.2957 45.0217 58.839 46.049C61.4303 47.245 62.726 49.6753 62.726 53.34V54.835C62.726 57.503 62.0283 59.5347 60.633 60.93C59.2377 62.31 57.1983 63 54.515 63H41.911ZM43.36 60.102H54.515C56.401 60.102 57.758 59.688 58.586 58.86C59.414 58.0167 59.828 56.675 59.828 54.835V53.34C59.828 51.4847 59.414 50.1507 58.586 49.338C57.7733 48.5253 56.4163 48.119 54.515 48.119H43.36V60.102ZM43.36 45.221H54.423C55.7417 45.221 56.6847 44.8683 57.252 44.163C57.8347 43.4577 58.126 42.4227 58.126 41.058V39.816C58.126 38.344 57.804 37.3013 57.16 36.688C56.516 36.0593 55.435 35.745 53.917 35.745H43.36V45.221Z" fill="#0085FF"/>
</svg>
