<svg class="svg-icon" style="width: 1em; height: 1em;vertical-align: middle;fill: currentColor;overflow: hidden;" viewBox="0 0 1024 1024" version="1.1" xmlns="http://www.w3.org/2000/svg"><path d="M989 614.5c-19.3 0-35 15.7-35 35v232.9c0 39.5-32.1 71.6-71.6 71.6H141.6c-6.7 0-13.2-1-19.4-2.7L486 587.5V773c0 19.3 15.7 35 35 35s35-15.7 35-35V503v-1.7c0-0.3 0-0.5-0.1-0.8 0-0.3 0-0.6-0.1-0.9 0-0.3-0.1-0.7-0.1-1 0-0.2-0.1-0.4-0.1-0.7-0.1-0.4-0.1-0.7-0.2-1.1 0-0.2-0.1-0.4-0.1-0.6-0.1-0.4-0.2-0.7-0.2-1.1 0-0.2-0.1-0.4-0.1-0.6-0.1-0.4-0.2-0.7-0.3-1.1-0.1-0.2-0.1-0.4-0.2-0.6-0.1-0.3-0.2-0.6-0.3-1-0.1-0.2-0.1-0.4-0.2-0.7l-0.3-0.9c-0.1-0.3-0.2-0.5-0.3-0.8-0.1-0.3-0.2-0.5-0.3-0.7-0.1-0.3-0.3-0.6-0.4-0.8l-0.3-0.6c-0.2-0.3-0.3-0.6-0.5-0.9-0.1-0.2-0.2-0.4-0.3-0.5-0.2-0.3-0.4-0.6-0.6-1-0.1-0.2-0.2-0.3-0.3-0.5-0.2-0.3-0.4-0.6-0.6-1-0.1-0.2-0.2-0.3-0.3-0.5l-0.6-0.9c-0.1-0.2-0.3-0.3-0.4-0.5-0.2-0.3-0.4-0.5-0.6-0.8-0.2-0.2-0.4-0.4-0.6-0.7-0.2-0.2-0.4-0.4-0.5-0.6-0.4-0.4-0.8-0.8-1.2-1.3-0.4-0.4-0.8-0.8-1.3-1.2-0.2-0.2-0.4-0.4-0.6-0.5-0.2-0.2-0.5-0.4-0.7-0.6-0.3-0.2-0.5-0.4-0.8-0.6-0.2-0.1-0.4-0.3-0.5-0.4l-0.9-0.6c-0.2-0.1-0.3-0.2-0.5-0.3l-0.9-0.6c-0.2-0.1-0.3-0.2-0.5-0.3-0.3-0.2-0.6-0.4-1-0.5-0.2-0.1-0.4-0.2-0.5-0.3-0.3-0.2-0.6-0.3-0.9-0.5l-0.6-0.3c-0.3-0.1-0.6-0.3-0.8-0.4-0.2-0.1-0.5-0.2-0.7-0.3-0.3-0.1-0.5-0.2-0.8-0.3l-0.9-0.3c-0.2-0.1-0.5-0.2-0.7-0.2-0.3-0.1-0.6-0.2-1-0.3-0.2-0.1-0.4-0.1-0.6-0.2-0.3-0.1-0.7-0.2-1.1-0.3-0.2 0-0.4-0.1-0.6-0.1-0.4-0.1-0.7-0.2-1.1-0.2-0.2 0-0.4-0.1-0.6-0.1-0.4-0.1-0.7-0.1-1.1-0.2-0.2 0-0.5-0.1-0.7-0.1-0.3 0-0.7-0.1-1-0.1-0.3 0-0.6 0-0.9-0.1-0.3 0-0.5 0-0.8-0.1H251c-19.3 0-35 15.7-35 35s15.7 35 35 35h185.5L72.7 901.8c-1.7-6.2-2.7-12.7-2.7-19.4V141.6c0-39.5 32.1-71.6 71.6-71.6h232.9c19.3 0 35-15.7 35-35s-15.7-35-35-35H141.6C63.5 0 0 63.5 0 141.6v740.8C0 960.5 63.5 1024 141.6 1024h740.8c78.1 0 141.6-63.5 141.6-141.6V649.5c0-19.3-15.7-35-35-35z"  /><path d="M899.7 0H748.3C679.7 0 624 55.7 624 124.3v151.4c0 68.7 55.7 124.3 124.3 124.3h151.4c68.7 0 124.3-55.7 124.3-124.3V124.3C1024 55.7 968.3 0 899.7 0zM954 275.7c0 30-24.4 54.3-54.3 54.3H748.3c-30 0-54.3-24.4-54.3-54.3V124.3c0-30 24.4-54.3 54.3-54.3h151.4c30 0 54.3 24.4 54.3 54.3v151.4z"  /></svg>